<?xml version="1.0" encoding="utf-8"?>
<!-- Generator: Adobe Illustrator 23.0.1, SVG Export Plug-In . SVG Version: 6.00 Build 0)  -->
<svg version="1.1" id="Layer_1" xmlns="http://www.w3.org/2000/svg" xmlns:xlink="http://www.w3.org/1999/xlink" x="0px" y="0px"
	 viewBox="0 0 1280 1169" style="enable-background:new 0 0 1280 1169;" xml:space="preserve">
<style type="text/css">
	.st0{fill:#DCDCDC;}
</style>
<g transform="translate(0.000000,1169.000000) scale(0.100000,-0.100000)">
	<path class="st0" d="M11734.5,7496.6c-45.6,252.7-160.5,486.4-323,659.3c-85.5,90.2-229.9,193.8-363.8,261.2
		c-332.5,166.2-953.7,275.5-1391.7,245.1c-448.4-31.3-781.8-165.3-1029.7-414.2c-210.9-210.9-317.3-456.9-317.3-737.2
		c0-277.4,96.9-524.4,279.3-710.6c168.1-172.9,368.6-281.2,647.9-351.5c228-57.9,295.4-63.6,692.5-62.7
		c446.5,0,601.3,14.2,860.7,79.8c492.1,123.5,846.4,402.8,934.7,736.2C11745,7279.1,11749.7,7415.8,11734.5,7496.6z"/>
	<path class="st0" d="M11556.9,4243c-9.5,75-49.4,206.1-81.7,270.7c-69.3,135.8-210.9,289.7-355.3,386.6
		c-321.1,215.6-873,359.1-1376.5,359.1c-252.7,0-427.5-27.5-632.7-98.8c-318.2-111.1-556.7-314.4-692.5-589.9
		c-68.4-137.7-99.7-259.3-106.4-410.4c-20.9-446.5,190-810.3,586.1-1009.8c292.6-147.2,650.7-199.5,1177.9-171.9
		c314.4,16.1,490.2,45.6,684.9,113C11310.8,3282.6,11622.4,3732.9,11556.9,4243z"/>
	<path class="st0" d="M8917,1332.4c-88.3,390.4-406.6,629.8-945.2,711.5c-52.2,7.6-233.7,20.9-403.7,28.5
		c-170,7.6-417,22.8-550,33.2c-422.7,33.2-664,23.7-843.6-33.2c-346.7-111.1-515.8-413.2-515.8-923.3c0-205.2,26.6-351.5,89.3-496.8
		C5860.1,393,6096.6,189.7,6404.4,89C6914.5-79.2,7644.1-4.2,8223.5,274.2c253.6,122.5,476.9,295.4,588,457.9
		c43.7,62.7,101.6,190,114,250.8C8941.7,1059.8,8936.9,1243.1,8917,1332.4z"/>
	<path class="st0" d="M8865.7,10621.9c-65.5,280.2-250.8,522.5-553.8,723.9c-236.5,155.8-506.3,260.3-820.8,317.3
		c-137.7,25.6-503.5,35.1-670.7,19c-532-53.2-909.1-230.8-1100-518.7c-117.8-178.6-161.5-372.4-138.7-626
		c26.6-293.5,120.6-519.6,285.9-693.5c189-198.5,436-300.2,798.9-328.7c220.4-18,891,24.7,1143.7,72.2
		c379,70.3,674.5,204.2,855.9,387.6c88.3,89.3,143.4,177.6,180.5,285.9C8878,10354,8887.5,10528.8,8865.7,10621.9z"/>
	<path class="st0" d="M7120.6,4826.3c-10.4,80.7-55.1,277.4-94,418.9c-145.3,532-172.9,697.3-165.3,978.4
		c3.8,165.3,11.4,236.5,57.9,598.5c33.2,247.9,35.1,283.1,35.1,522.5c0.9,245.1-1,261.2-24.7,361c-13.3,57-38,141.5-55.1,187.1
		c-108.3,298.3-383.8,532.9-705.8,601.3c-100.7,21.8-282.1,18-477.8-9.5c-228-33.2-341-38-436-20.9
		c-321.1,58.9-541.5,302.1-748.6,828.4c-220.4,560.5-258.4,645-366.7,806.5c-132,199.5-353.4,393.3-547.2,481.6
		c-274.5,124.4-569,76-968.9-159.6c-262.2-153.9-562.4-432.2-767.6-710.6c-19-26.6-38-52.2-42.7-57
		c-11.4-15.2-70.3-107.3-118.7-185.2c-74.1-120.6-183.3-359.1-233.7-508.2c-125.4-376.2-114.9-586.1,41.8-845.5
		c39.9-66.5,111.1-171,135.8-199.5c29.4-35.1,148.2-221.3,175.7-275.5c94-189,106.4-370.5,38-578.5
		c-27.5-84.5-116.8-263.1-192.8-385.7c-27.5-44.6-57-94-66.5-109.2c-8.5-16.1-32.3-56-52.2-89.3
		c-143.4-243.2-205.2-467.4-184.3-668.8c16.1-161.5,68.4-306.8,189-533.9c262.2-491.1,302.1-610.8,291.6-878.7
		c-6.6-160.5-23.7-252.7-93.1-480.7c-129.2-427.5-151-529.1-151-699.2c0-184.3,32.3-292.6,132-444.6
		c79.8-121.6,288.8-312.5,494.9-451.2c136.8-92.1,568.1-350.5,669.7-400.9c301.1-151,543.4-152.9,724.8-5.7
		c44.6,37,107.3,122.5,134.9,188.1c22.8,53.2,58.9,206.1,90.2,384.7c41.8,231.8,95.9,364.8,214.7,523.4
		c163.4,217.5,488.3,477.8,701.1,563.3c61.7,24.7,87.4,28.5,181.4,32.3c116.8,3.8,181.4-7.6,422.7-74.1
		c229.9-62.7,337.2-78.8,522.5-79.8c156.7-0.9,178.6,0.9,266.9,24.7c375.2,101.6,724.8,389.5,887.2,731.5
		c67.4,144.4,86.4,228.9,90.2,406.6C7128.2,4694.2,7125.4,4790.2,7120.6,4826.3z"/>
</g>
</svg>
